{"title":"Skyline.2010.BRRip.XviD.Feel-Free","uid":6066311,"size":1262874517,"categoryP":"video","categoryS":"movies","magnet":"?xt=urn:btih:c936f7e61a7de987e7c0796d646a63c04a48c51e&amp;dn=Skyline.2010.BRRip.XviD.Feel-Free&amp;tr=udp%3A%2F%2Ftracker.openbittorrent.com%3A80&amp;tr=udp%3A%2F%2Fopen.demonii.com%3A1337&amp;tr=udp%3A%2F%2Ftracker.coppersurfer.tk%3A6969&amp;tr=udp%3A%2F%2Fexodus.desync.com%3A6969","seeders":0,"leechers":0,"uploader":"neon","files":-1,"time":1293374147,"description":"\n\n\n\nGenre:Sci-Fi | Thriller\nLanguage:English\n &lt;a href=&quot; http://www.imdb.com/title/tt1564585/&quot; rel=&quot;nofollow&quot; target=&quot;_NEW&quot;&gt; http://www.imdb.com/title/tt1564585/&lt;/a&gt;\nSource:BluRay.x264-Vetax\n\n\nFormat : AVI\nFormat/Info : Audio Video Interleave\nFile size : 1.17 GiB\nDuration : 1h 28mn\nOverall bit rate : 1 894 Kbps\n\nVideo\nCodec ID/Hint : XviD\nDuration : 1h 28mn\nBit rate : 1 499 Kbps\nWidth : 720 pixels\nHeight : 384 pixels\nDisplay aspect ratio : 1.875\nFrame rate : 25.000 fps\nColor space : YUV\nChroma subsampling : 4:2:0\nBit depth : 8 bits\nScan type : Progressive\nBits/(Pixel*Frame) : 0.217\nStream size : 951 MiB (79%)\nWriting library : XviD 1.2.1 (UTC 2008-12-04)\n\nAudio\nID : 1\nFormat : AC-3\nFormat/Info : Audio Coding 3\nMode extension : CM (complete main)\nCodec ID : 2000\nDuration : 1h 28mn\nBit rate mode : Constant\nBit rate : 384 Kbps\nChannel(s) : 6 channels\nChannel positions : Front: L C R, Side: L R, LFE\nSampling rate : 48.0 KHz\nBit depth : 16 bits\nStream size : 244 MiB (20%)\nAlignment : Aligned on interleaves\n\n\nPlot:\nStrange lights descend on the city of Los Angeles, drawing people outside like moths to a flame where\n","torrent":{"xt":"urn:btih:c936f7e61a7de987e7c0796d646a63c04a48c51e","amp;dn":"Skyline.2010.BRRip.XviD.Feel-Free","amp;tr":["udp%3A%2F%2Ftracker.openbittorrent.com%3A80","udp%3A%2F%2Fopen.demonii.com%3A1337","udp%3A%2F%2Ftracker.coppersurfer.tk%3A6969","udp%3A%2F%2Fexodus.desync.com%3A6969"],"infoHash":"c936f7e61a7de987e7c0796d646a63c04a48c51e","infoHashBuffer":{"type":"Buffer","data":[201,54,247,230,26,125,233,135,231,192,121,109,100,106,99,192,74,72,197,30]},"announce":[],"urlList":[]}}